HIERARCHY
ROOT Hips
{
	OFFSET -0.001795 -0.223333 0.028219
	CHANNELS 6 Xposition Yposition Zposition Zrotation Yrotation Xrotation 
	JOINT LeftUpLeg
	{
		OFFSET 0.069520 -0.091406 -0.006815
		CHANNELS 3 Zrotation Yrotation Xrotation
		JOINT LeftLeg
		{
			OFFSET 0.034277 -0.375199 -0.004496
			CHANNELS 3 Zrotation Yrotation Xrotation
			JOINT LeftFoot
			{
				OFFSET -0.013596 -0.397961 -0.043693
				CHANNELS 3 Zrotation Yrotation Xrotation
				JOINT LeftToe
				{
					OFFSET 0.026358 -0.055791 0.119288
					CHANNELS 3 Zrotation Yrotation Xrotation
					End Site
					{
						OFFSET 0.000000 0.000000 0.000000
					}
				}
			}
		}
	}
	JOINT RightUpLeg
	{
		OFFSET -0.067670 -0.090522 -0.004320
		CHANNELS 3 Zrotation Yrotation Xrotation
		JOINT RightLeg
		{
			OFFSET -0.038290 -0.382569 -0.008850
			CHANNELS 3 Zrotation Yrotation Xrotation
			JOINT RightFoot
			{
				OFFSET 0.015774 -0.398415 -0.042312
				CHANNELS 3 Zrotation Yrotation Xrotation
				JOINT RightToe
				{
					OFFSET -0.025372 -0.048144 0.123348
					CHANNELS 3 Zrotation Yrotation Xrotation
					End Site
					{
						OFFSET 0.000000 0.000000 0.000000
					}
				}
			}
		}
	}
	JOINT Spine
	{
		OFFSET -0.002533 0.108963 -0.026696
		CHANNELS 3 Zrotation Yrotation Xrotation
		JOINT Spine1
		{
			OFFSET 0.005487 0.135180 0.001092
			CHANNELS 3 Zrotation Yrotation Xrotation
			JOINT Spine2
			{
				OFFSET 0.001457 0.052922 0.025425
				CHANNELS 3 Zrotation Yrotation Xrotation
				JOINT Neck
				{
					OFFSET -0.002778 0.213870 -0.042857
					CHANNELS 3 Zrotation Yrotation Xrotation
					JOINT Head
					{
						OFFSET 0.005152 0.064970 0.051349
						CHANNELS 3 Zrotation Yrotation Xrotation
						End Site
						{
							OFFSET 0.000000 0.000000 0.000000
						}
					}
				}
				JOINT LeftShoulder
				{
					OFFSET 0.078845 0.121749 -0.034090
					CHANNELS 3 Zrotation Yrotation Xrotation
					JOINT LeftArm
					{
						OFFSET 0.090977 0.030469 -0.008868
						CHANNELS 3 Zrotation Yrotation Xrotation
						JOINT LeftForeArm
						{
							OFFSET 0.259612 -0.012772 -0.027456
							CHANNELS 3 Zrotation Yrotation Xrotation
							JOINT LeftHand
							{
								OFFSET 0.249234 0.008986 -0.001171
								CHANNELS 3 Zrotation Yrotation Xrotation
								End Site
								{
									OFFSET 0.000000 0.000000 0.000000
								}
							}
						}
					}
				}
				JOINT RightShoulder
				{
					OFFSET -0.081759 0.118833 -0.038615
					CHANNELS 3 Zrotation Yrotation Xrotation
					JOINT RightArm
					{
						OFFSET -0.096012 0.032551 -0.009143
						CHANNELS 3 Zrotation Yrotation Xrotation
						JOINT RightForeArm
						{
							OFFSET -0.253742 -0.013329 -0.021401
							CHANNELS 3 Zrotation Yrotation Xrotation
							JOINT RightHand
							{
								OFFSET -0.255298 0.007772 -0.005559
								CHANNELS 3 Zrotation Yrotation Xrotation
								End Site
								{
									OFFSET 0.000000 0.000000 0.000000
								}
							}
						}
					}
				}
			}
		}
	}
}
MOTION
Frames: 13
Frame Time: 0.050000
-0.009843 0.956201 -0.075339 -7.173124 14.489470 13.636164 12.660512 -0.967662 -16.870804 4.734140 0.220821 -9.459150 -6.879143 -0.703358 20.108351 0.000000 0.000000 0.000000 1.620884 1.259207 -12.242125 -1.375474 -0.006912 -3.507353 -3.348917 -9.442358 12.024871 0.000000 0.000000 0.000000 -7.714410 0.436246 5.002531 -6.826377 2.932575 -1.869439 4.709185 8.433014 5.555464 -0.265291 1.473745 -6.781287 0.000000 0.000000 0.000000 4.047391 -13.695126 4.612045 -20.845694 -33.135750 1.480282 -2.909272 -67.020851 0.226107 0.000000 0.000000 0.000000 -15.161591 29.922352 7.160566 6.307908 42.006848 1.161967 -26.323570 64.549423 -10.855177 0.000000 0.000000 0.000000 
-0.009502 0.956965 -0.075306 -7.114269 15.605888 13.732103 12.688563 -1.030392 -17.206398 4.497225 0.230890 -9.684910 -7.485680 -1.218422 20.491603 0.000000 0.000000 0.000000 1.641378 1.278906 -12.550527 -1.524385 0.031590 -3.129746 -3.787326 -10.169115 12.580732 0.000000 0.000000 0.000000 -7.899258 0.441393 4.949098 -6.338417 2.720401 -1.576688 4.923980 8.819031 5.490364 0.070568 1.313749 -6.946513 0.000000 0.000000 0.000000 5.537961 -13.983135 4.877604 -18.360006 -33.191270 0.915862 6.191545 -67.202319 -6.189445 0.000000 0.000000 0.000000 -16.583136 30.370977 6.822253 6.627920 42.591494 1.505153 -32.809021 65.706107 -15.000327 0.000000 0.000000 0.000000 
-0.008421 0.957427 -0.074596 -7.072537 16.073144 13.582046 12.653395 -1.051539 -17.178364 4.319190 0.226210 -9.613416 -7.734013 -1.487618 20.518336 0.000000 0.000000 0.000000 1.581549 1.259714 -12.408954 -1.793674 0.082504 -2.725438 -3.676567 -9.878065 12.445227 0.000000 0.000000 0.000000 -7.887947 0.432814 4.912334 -6.321466 2.707092 -1.427451 5.128502 9.272855 5.331980 0.262514 0.948812 -5.498147 0.000000 0.000000 0.000000 6.292231 -13.909767 4.967163 -16.335041 -32.992310 0.475475 13.439048 -66.857078 -11.225769 0.000000 0.000000 0.000000 -16.436305 30.467928 6.891388 7.723963 42.753452 1.939734 -37.180180 68.308997 -18.556782 0.000000 0.000000 0.000000 
-0.006862 0.957460 -0.073470 -7.038781 17.114599 13.411317 12.299658 -1.119835 -17.489007 4.626923 0.200891 -9.198128 -8.265279 -2.153946 20.358449 0.000000 0.000000 0.000000 1.605663 1.235997 -12.192845 -2.023030 0.142916 -2.153111 -5.007299 -12.312510 12.961186 0.000000 0.000000 0.000000 -7.933317 0.419557 4.953221 -6.140614 2.621740 -1.248865 5.557316 9.434889 5.549016 0.192565 0.872533 -4.653529 0.000000 0.000000 0.000000 7.529070 -14.130445 5.193029 -14.836030 -33.086682 0.091482 23.268041 -64.884536 -17.498637 0.000000 0.000000 0.000000 -16.585563 30.278709 6.745834 10.214855 41.788677 2.685777 -43.686578 71.379654 -24.068980 0.000000 0.000000 0.000000 
-0.005110 0.957475 -0.072442 -6.919996 17.817774 13.179818 12.100314 -1.155005 -17.432340 4.489723 0.193219 -9.070237 -8.624845 -2.617614 20.246546 0.000000 0.000000 0.000000 1.394043 1.169555 -11.601817 -2.305461 0.192883 -1.867220 -5.964069 -14.033432 13.409657 0.000000 0.000000 0.000000 -8.091638 0.414724 4.746440 -5.985494 2.546787 -1.048764 5.902048 9.527083 5.597440 0.111564 0.810611 -3.942969 0.000000 0.000000 0.000000 7.676183 -14.022450 5.194721 -13.676978 -34.492274 -0.175336 28.114769 -60.522558 -19.071953 0.000000 0.000000 0.000000 -15.145279 30.219852 7.181778 12.078117 40.973852 3.087159 -47.556193 74.242723 -28.238265 0.000000 0.000000 0.000000 
-0.003474 0.957363 -0.071945 -6.737324 18.150499 13.066424 11.610222 -1.193291 -17.645843 4.769422 0.161689 -8.494137 -8.794966 -2.949073 19.974402 0.000000 0.000000 0.000000 1.090921 1.126630 -11.345513 -2.249680 0.210498 -1.475156 -7.553907 -16.912521 14.341299 0.000000 0.000000 0.000000 -8.254637 0.417257 4.635554 -6.157579 2.602337 -0.595892 6.211594 9.401986 5.476742 0.462467 0.418113 -3.286640 0.000000 0.000000 0.000000 7.658524 -14.436229 5.281197 -13.472925 -36.103280 -0.234196 30.602335 -55.312698 -18.423857 0.000000 0.000000 0.000000 -13.971163 29.995244 7.501051 13.668420 40.788978 3.457250 -48.994874 76.612004 -30.639536 0.000000 0.000000 0.000000 
-0.002215 0.957280 -0.072038 -6.482555 18.773816 13.288778 11.215942 -1.258721 -18.046384 4.813957 0.156322 -8.411379 -9.129990 -3.301831 20.037811 0.000000 0.000000 0.000000 0.796698 1.108970 -11.458800 -2.266623 0.226106 -1.269973 -9.164484 -19.612233 15.559193 0.000000 0.000000 0.000000 -8.176100 0.409855 4.571499 -6.436653 2.685010 0.101061 6.293981 9.013978 4.917465 0.258797 0.549305 -3.286294 0.000000 0.000000 0.000000 7.701809 -14.878281 5.382780 -13.187269 -39.372403 -0.335160 30.187542 -48.121711 -15.283969 0.000000 0.000000 0.000000 -13.548300 30.300081 7.768363 14.655425 41.037619 3.761908 -47.541401 78.195608 -30.393108 0.000000 0.000000 0.000000 
-0.001367 0.956732 -0.072440 -6.198170 19.014920 13.237087 11.054770 -1.282853 -18.228571 4.431519 0.142253 -8.011669 -9.208330 -3.512875 19.824064 0.000000 0.000000 0.000000 0.580197 1.095141 -11.508472 -2.484171 0.274947 -0.861108 -9.857023 -20.830625 15.612871 0.000000 0.000000 0.000000 -8.281796 0.416290 4.673108 -6.562546 2.716471 0.605541 6.402391 8.703481 4.523927 -0.089032 0.536229 -2.016253 0.000000 0.000000 0.000000 7.121953 -15.450745 5.440454 -14.234847 -41.025664 -0.005795 30.127359 -44.292853 -13.754129 0.000000 0.000000 0.000000 -12.812164 30.731184 8.170045 14.939256 41.748538 3.899668 -42.842848 78.287131 -26.767637 0.000000 0.000000 0.000000 
-0.000975 0.956388 -0.073009 -6.050053 18.945682 13.266436 10.721626 -1.301252 -18.384755 4.672085 0.124614 -7.731199 -9.176510 -3.558617 19.671996 0.000000 0.000000 0.000000 0.337529 1.088694 -11.668923 -2.408845 0.283746 -0.520738 -9.775311 -20.690207 15.597856 0.000000 0.000000 0.000000 -8.311447 0.426166 5.056482 -6.851742 2.832764 0.816941 6.485504 8.790403 4.301891 -0.367543 0.774603 -2.204415 0.000000 0.000000 0.000000 6.415843 -15.680520 5.415563 -15.448685 -42.369006 0.380736 28.011018 -43.720921 -12.501156 0.000000 0.000000 0.000000 -12.393213 30.977133 8.412809 14.588000 42.942343 3.969400 -36.756355 76.476650 -21.219391 0.000000 0.000000 0.000000 
-0.000825 0.956046 -0.073526 -6.221264 18.662733 13.655865 10.770155 -1.313003 -18.793305 4.976839 0.119803 -7.726601 -8.979330 -3.356388 19.615990 0.000000 0.000000 0.000000 0.362786 1.128251 -12.161910 -2.557460 0.293297 -0.645166 -9.697767 -20.497285 16.043367 0.000000 0.000000 0.000000 -8.083785 0.427951 5.134034 -7.048066 2.915261 0.760925 6.296924 8.924201 3.990358 -0.645420 0.936714 -2.056056 0.000000 0.000000 0.000000 4.885214 -16.016215 5.327030 -17.938335 -42.284504 1.217309 24.804416 -45.667109 -11.570821 0.000000 0.000000 0.000000 -12.489348 31.160186 8.485356 14.227318 43.519476 3.969304 -33.486833 74.366324 -18.015507 0.000000 0.000000 0.000000 
-0.000906 0.955867 -0.073662 -6.253642 18.557346 13.868806 10.466319 -1.338865 -19.047746 5.604792 0.102239 -7.653002 -8.940613 -3.328702 19.588524 0.000000 0.000000 0.000000 0.345907 1.165307 -12.714680 -2.633812 0.318707 -0.329849 -9.677789 -20.316433 16.878566 0.000000 0.000000 0.000000 -7.972262 0.431031 5.263027 -7.122793 2.922674 1.598758 6.100751 9.148601 3.449765 -0.557251 0.801117 -1.801085 0.000000 0.000000 0.000000 2.950392 -15.889694 5.057257 -21.055059 -40.376021 2.144832 21.533313 -51.665969 -11.710438 0.000000 0.000000 0.000000 -12.092284 30.675409 8.511218 13.717779 43.750569 3.833022 -29.775149 72.581004 -14.731145 0.000000 0.000000 0.000000 
-0.001064 0.955728 -0.073234 -6.357396 18.312322 14.042491 10.720706 -1.329119 -19.270256 5.453862 0.095378 -7.458327 -8.740135 -3.152068 19.469991 0.000000 0.000000 0.000000 0.645396 1.207184 -12.925823 -2.897861 0.333063 -0.615035 -9.819387 -20.282186 18.716874 0.000000 0.000000 0.000000 -7.757923 0.424253 5.457476 -7.330748 3.010133 1.883584 5.733510 9.569762 3.453388 -0.405810 0.701361 -1.873613 0.000000 0.000000 0.000000 1.067344 -14.704515 4.444041 -23.998805 -38.124940 2.798884 15.392826 -59.935459 -10.593717 0.000000 0.000000 0.000000 -12.271196 29.483715 8.083003 14.516950 42.690460 3.979731 -28.136385 73.224374 -13.453485 0.000000 0.000000 0.000000 
-0.001336 0.955503 -0.072488 -6.379414 18.334908 14.260180 10.823276 -1.352711 -19.757916 5.425210 0.066753 -6.957140 -8.665500 -3.152955 19.290477 0.000000 0.000000 0.000000 0.593330 1.226200 -13.284623 -2.853925 0.318871 -0.771017 -10.224510 -20.460426 21.757484 0.000000 0.000000 0.000000 -7.619692 0.419538 5.665082 -7.551786 3.098863 2.014854 5.413011 9.627614 3.699991 -0.024496 0.578641 -2.625926 0.000000 0.000000 0.000000 -0.145285 -13.752023 3.956285 -26.577514 -34.351202 2.971717 3.872319 -68.875363 -5.066349 0.000000 0.000000 0.000000 -12.700072 27.809979 7.394423 16.194291 40.725781 4.198334 -27.087610 75.809633 -12.913168 0.000000 0.000000 0.000000 
